<svg xmlns="http://www.w3.org/2000/svg" width="512" height="512" viewBox="0 0 512 512">
  <defs>
    <linearGradient id="g" x1="0" y1="0" x2="1" y2="1">
      <stop offset="0%" stop-color="#FFD700"/>
      <stop offset="100%" stop-color="#B87333"/>
    </linearGradient>
    <filter id="softglow" x="-50%" y="-50%" width="200%" height="200%">
      <feGaussianBlur stdDeviation="6" result="blur"/>
      <feMerge>
        <feMergeNode in="blur"/>
        <feMergeNode in="SourceGraphic"/>
      </feMerge>
    </filter>
  </defs>
  <!-- Minimal shield backdrop for exclusivity -->
  <path d="M256 40c82 0 166 26 166 26v190c0 108-78 176-166 236-88-60-166-128-166-236V66s84-26 166-26z" fill="#0b0f17"/>
  <!-- T bar -->
  <rect x="112" y="120" width="288" height="44" rx="10" fill="url(#g)" filter="url(#softglow)"/>
  <!-- Knot of tie -->
  <path d="M238 164h36l18 34-36 20-36-20 18-34z" fill="url(#g)"/>
  <!-- Tie body -->
  <path d="M256 218l-40 56 40 180 40-180-40-56z" fill="url(#g)"/>
  <!-- Subtle inner shine -->
  <path d="M246 218l-22 30 32 146 32-146-22-30h-20z" fill="rgba(255,255,255,0.08)"/>
</svg>
